700 365 1 0         
16 Autodesk AutoCAD 20 ASM 225.5.0.65535 NT 24 Tue Dec 15 17:50:58 2020 
25.39999999999999858 9.999999999999999547e-07 1.000000000000000036e-10 
body $-1 -1 $-1 $1 $-1 $2 #
lump $-1 -1 $-1 $-1 $3 $0 #
transform $-1 -1 6.123233995736766036e-17 -1.224646799147353207e-16 -1 0 -1 1.224646799147353207e-16 -1 -7.498798913309288039e-33 -6.123233995736766036e-17 48.2170000000004606 967.1567065340877889 1543.612579231878954 1 rotate no_reflect no_shear #
shell $-1 -1 $-1 $-1 $-1 $4 $-1 $1 #
face $5 -1 $-1 $6 $7 $3 $-1 $8 forward single #
color-adesk-attrib $-1 -1 $-1 $-1 $4 256 #
face $9 -1 $-1 $10 $11 $3 $-1 $12 reversed single #
loop $-1 -1 $-1 $-1 $13 $4 #
cone-surface $-1 -1 $-1 1338.592431525750953 980.3642780379503847 0 0 0 1 -2.273736754432320595e-13 12.41999999999995907 0 1 I I 0 1 12.41999999999995907 forward I I I I #
color-adesk-attrib $-1 -1 $-1 $-1 $6 256 #
face $14 -1 $-1 $15 $16 $3 $-1 $17 reversed single #
loop $-1 -1 $-1 $-1 $18 $6 #
plane-surface $-1 -1 $-1 1333.360155141637733 967.1442780379501301 0 0 0 1 1 0 0 forward_v I I I I #
coedge $-1 -1 $-1 $19 $20 $21 $22 forward $7 $-1 #
color-adesk-attrib $-1 -1 $-1 $-1 $10 256 #
face $23 -1 $-1 $24 $25 $3 $-1 $26 reversed single #
loop $-1 -1 $-1 $-1 $27 $10 #
cone-surface $-1 -1 $-1 1338.592431525750953 980.3642780379503847 0 0 0 1 -1.504840267426219438e-13 8.219999999999959783 0 1 I I 0 1 12.41999999999995907 forward I I I I #
coedge $-1 -1 $-1 $28 $21 $29 $30 reversed $11 $-1 #
coedge $-1 -1 $-1 $31 $13 $32 $33 forward $7 $-1 #
coedge $-1 -1 $-1 $13 $31 $34 $35 reversed $7 $-1 #
coedge $-1 -1 $-1 $18 $36 $13 $22 reversed $11 $-1 #
edge $37 -1 $-1 $38 0 $39 1.570796326794887454 $13 $40 forward @7 unknown #
color-adesk-attrib $-1 -1 $-1 $-1 $15 256 #
face $41 -1 $-1 $42 $43 $3 $-1 $44 reversed single #
loop $-1 -1 $-1 $-1 $45 $15 #
plane-surface $-1 -1 $-1 1339.802431525751217 967.1442780379506985 5.07400000000127438 -6.123233995736766036e-17 0 1 1 -1.224646799147353207e-16 6.123233995736766036e-17 reverse_v I I I I #
coedge $-1 -1 $-1 $46 $47 $48 $49 forward $16 $-1 #
coedge $-1 -1 $-1 $36 $18 $50 $51 reversed $11 $-1 #
coedge $-1 -1 $-1 $34 $52 $18 $30 forward $53 $-1 #
edge $54 -1 $-1 $55 0 $38 51.28000000000020009 $29 $56 forward @7 unknown #
coedge $-1 -1 $-1 $20 $19 $57 $58 reversed $7 $-1 #
coedge $-1 -1 $-1 $59 $60 $19 $33 reversed $61 $-1 #
edge $62 -1 $-1 $39 0 $63 96.4339999999999975 $19 $64 forward @7 tangent #
coedge $-1 -1 $-1 $65 $29 $20 $35 forward $53 $-1 #
edge $66 -1 $-1 $38 0 $67 96.4339999999999975 $20 $68 forward @7 unknown #
coedge $-1 -1 $-1 $21 $28 $59 $69 reversed $11 $-1 #
color-adesk-attrib $-1 -1 $-1 $-1 $22 256 #
vertex $-1 -1 $-1 $22 $70 #
vertex $-1 -1 $-1 $22 $71 #
ellipse-curve $-1 -1 $-1 1338.592431525750953 980.3642780379503847 0 -0 0 1 -2.273736754432320595e-13 12.41999999999995907 0 1 F 0 F 1.570796326794887454 #
color-adesk-attrib $-1 -1 $-1 $-1 $24 256 #
face $72 -1 $-1 $73 $74 $3 $-1 $75 reversed single #
loop $-1 -1 $-1 $-1 $76 $24 #
plane-surface $-1 -1 $-1 1333.360155141637733 967.1442780379501301 87.1939999999999884 0 0 1 1 0 0 forward_v I I I I #
coedge $-1 -1 $-1 $77 $78 $79 $80 forward $25 $-1 #
coedge $-1 -1 $-1 $81 $27 $82 $83 forward $16 $-1 #
coedge $-1 -1 $-1 $27 $81 $84 $85 reversed $16 $-1 #
coedge $-1 -1 $-1 $86 $87 $27 $49 reversed $88 $-1 #
edge $89 -1 $-1 $90 9.274000000000000909 $91 87.1939999999999884 $27 $92 forward @7 unknown #
coedge $-1 -1 $-1 $93 $94 $28 $51 forward $95 $-1 #
edge $96 -1 $-1 $97 0 $55 1.570796326794859921 $50 $98 forward @7 unknown #
coedge $-1 -1 $-1 $29 $65 $93 $99 reversed $53 $-1 #
loop $-1 -1 $-1 $100 $65 $101 #
color-adesk-attrib $-1 -1 $-1 $-1 $30 256 #
vertex $-1 -1 $-1 $51 $102 #
straight-curve $-1 -1 $-1 1338.592431525750726 941.5042780379501437 0 0 1 0 F 0 F 51.28000000000020009 #
coedge $-1 -1 $-1 $103 $104 $31 $58 forward $105 $-1 #
edge $106 -1 $-1 $67 0 $63 1.570796326794887454 $31 $107 forward @7 unknown #
coedge $-1 -1 $-1 $108 $32 $36 $69 forward $61 $-1 #
coedge $-1 -1 $-1 $32 $108 $103 $109 reversed $61 $-1 #
loop $-1 -1 $-1 $-1 $59 $110 #
color-adesk-attrib $-1 -1 $-1 $-1 $33 256 #
vertex $-1 -1 $-1 $33 $111 #
straight-curve $-1 -1 $-1 1326.172431525751108 980.364278037950271 0 0 0 1 I I #
coedge $-1 -1 $-1 $52 $34 $104 $112 reversed $53 $-1 #
color-adesk-attrib $-1 -1 $-1 $-1 $35 256 #
vertex $-1 -1 $-1 $35 $113 #
straight-curve $-1 -1 $-1 1338.592431525750726 992.7842780379503438 0 0 0 1 I I #
edge $114 -1 $-1 $39 0 $97 26.44000000000005457 $59 $115 forward @7 unknown #
point $-1 -1 $-1 1338.592431525750726 992.7842780379503438 0 #
point $-1 -1 $-1 1326.172431525751108 980.364278037950271 0 #
color-adesk-attrib $-1 -1 $-1 $-1 $42 256 #
face $116 -1 $-1 $117 $118 $3 $-1 $119 reversed single #
loop $-1 -1 $-1 $-1 $120 $42 #
plane-surface $-1 -1 $-1 1333.592431525750726 948.3242780379509895 48.21699999999964348 -1.224646799147353207e-16 -1 -7.498798913309288039e-33 -6.123233995736766036e-17 0 1 forward_v I I I I #
coedge $-1 -1 $-1 $121 $82 $87 $122 forward $43 $-1 #
coedge $-1 -1 $-1 $123 $45 $124 $125 forward $25 $-1 #
coedge $-1 -1 $-1 $45 $123 $126 $127 reversed $25 $-1 #
coedge $-1 -1 $-1 $128 $129 $45 $80 reversed $130 $-1 #
edge $131 -1 $-1 $132 -23.01999999999975444 $133 23.01999999999986812 $45 $134 reversed @7 unknown #
coedge $-1 -1 $-1 $47 $46 $135 $136 reversed $16 $-1 #
coedge $-1 -1 $-1 $76 $137 $46 $83 reversed $43 $-1 #
edge $138 -1 $-1 $91 0.8213067410592470585 $139 1.570796326794892117 $46 $140 forward @7 unknown #
coedge $-1 -1 $-1 $141 $142 $47 $85 forward $143 $-1 #
edge $144 -1 $-1 $90 0.8213067410592470585 $145 1.570796326794892117 $47 $146 forward @7 unknown #
coedge $-1 -1 $-1 $147 $48 $142 $148 reversed $88 $-1 #
coedge $-1 -1 $-1 $48 $147 $76 $122 reversed $88 $-1 #
loop $-1 -1 $-1 $-1 $87 $149 #
color-adesk-attrib $-1 -1 $-1 $-1 $49 256 #
vertex $-1 -1 $-1 $85 $150 #
vertex $-1 -1 $-1 $83 $151 #
straight-curve $-1 -1 $-1 1332.575089920024766 985.9642780379499527 0 -0 0 1 I I #
coedge $-1 -1 $-1 $152 $50 $52 $99 forward $95 $-1 #
coedge $-1 -1 $-1 $50 $152 $108 $153 reversed $95 $-1 #
loop $-1 -1 $-1 $-1 $152 $154 #
color-adesk-attrib $-1 -1 $-1 $-1 $51 256 #
vertex $-1 -1 $-1 $69 $155 #
ellipse-curve $-1 -1 $-1 1338.592431525750953 953.9242780379504438 0 -0 -0 1 -12.42000000000030013 -2.273736754432320595e-13 0 1 F 0 F 1.570796326794859921 #
edge $156 -1 $-1 $55 0 $157 96.4339999999999975 $93 $158 forward @7 unknown #
loop $-1 -1 $-1 $-1 $159 $101 #
face $160 -1 $-1 $154 $53 $3 $-1 $161 forward single #
point $-1 -1 $-1 1338.592431525750726 941.5042780379501437 0 #
coedge $-1 -1 $-1 $162 $57 $60 $109 forward $105 $-1 #
coedge $-1 -1 $-1 $57 $162 $65 $112 forward $105 $-1 #
loop $-1 -1 $-1 $-1 $57 $163 #
color-adesk-attrib $-1 -1 $-1 $-1 $58 256 #
ellipse-curve $-1 -1 $-1 1338.592431525750953 980.3642780379503847 96.4339999999999975 0 0 1 -2.273736754432320595e-13 12.41999999999995907 0 1 I I #
coedge $-1 -1 $-1 $60 $59 $94 $153 forward $61 $-1 #
edge $164 -1 $-1 $63 0 $165 26.44000000000005457 $60 $166 forward @7 unknown #
face $167 -1 $-1 $163 $168 $3 $-1 $169 forward single #
point $-1 -1 $-1 1326.172431525751108 980.364278037950271 96.4339999999999975 #
edge $170 -1 $-1 $157 0 $67 51.28000000000020009 $65 $171 forward @7 unknown #
point $-1 -1 $-1 1338.592431525750726 992.7842780379503438 96.4339999999999975 #
color-adesk-attrib $-1 -1 $-1 $-1 $69 256 #
straight-curve $-1 -1 $-1 1326.172431525750653 980.364278037950271 0 0 -1 0 F 0 F 26.44000000000005457 #
color-adesk-attrib $-1 -1 $-1 $-1 $73 256 #
face $172 -1 $-1 $173 $174 $3 $-1 $175 reversed single #
loop $-1 -1 $-1 $-1 $124 $73 #
plane-surface $-1 -1 $-1 1339.802431525751217 944.1242780379508304 48.2340000000008331 1.224646799147353207e-16 1 7.498798913309288039e-33 -1 1.224646799147353207e-16 -6.123233995736766036e-17 reverse_v I I I I #
coedge $-1 -1 $-1 $176 $177 $178 $179 reversed $74 $-1 #
coedge $-1 -1 $-1 $180 $76 $181 $182 reversed $43 $-1 #
edge $183 -1 $-1 $91 -0.9012034136694637709 $184 7.536138192057022955 $76 $185 forward @7 unknown #
coedge $-1 -1 $-1 $78 $77 $186 $187 reversed $25 $-1 #
coedge $-1 -1 $-1 $188 $189 $77 $125 reversed $118 $-1 #
edge $190 -1 $-1 $133 -1.21000000000003638 $191 1.210000000000491127 $77 $192 reversed @7 unknown #
coedge $-1 -1 $-1 $193 $194 $78 $127 forward $195 $-1 #
edge $196 -1 $-1 $132 -1.21000000000003638 $197 1.210000000000491127 $78 $198 forward @7 unknown #
coedge $-1 -1 $-1 $199 $79 $194 $200 reversed $130 $-1 #
coedge $-1 -1 $-1 $79 $199 $188 $201 reversed $130 $-1 #
loop $-1 -1 $-1 $202 $199 $203 #
color-adesk-attrib $-1 -1 $-1 $-1 $80 256 #
vertex $-1 -1 $-1 $80 $204 #
vertex $-1 -1 $-1 $80 $205 #
straight-curve $-1 -1 $-1 1341.012431525751254 967.1442780379506985 5.074000000001277044 1.224646799147353207e-16 1 7.498798913309288039e-33 F -10967.14427903795149 F 9032.855722962049185 #
coedge $-1 -1 $-1 $206 $207 $81 $136 forward $208 $-1 #
edge $209 -1 $-1 $145 9.274000000000000909 $139 87.1939999999999884 $81 $210 forward @7 tangent #
coedge $-1 -1 $-1 $82 $211 $206 $212 reversed $43 $-1 #
color-adesk-attrib $-1 -1 $-1 $-1 $83 256 #
vertex $-1 -1 $-1 $136 $213 #
ellipse-curve $-1 -1 $-1 1338.592431525750953 980.3642780379503847 87.1939999999999884 0 0 1 -1.504840267426219438e-13 8.219999999999959783 0 1 I I #
coedge $-1 -1 $-1 $214 $84 $207 $215 forward $143 $-1 #
coedge $-1 -1 $-1 $84 $216 $86 $148 forward $143 $-1 #
loop $-1 -1 $-1 $-1 $142 $173 #
color-adesk-attrib $-1 -1 $-1 $-1 $85 256 #
vertex $-1 -1 $-1 $85 $217 #
ellipse-curve $-1 -1 $-1 1338.592431525750953 980.3642780379503847 9.274000000000000909 0 0 1 -1.504840267426219438e-13 8.219999999999959783 0 1 I I #
coedge $-1 -1 $-1 $87 $86 $218 $219 reversed $88 $-1 #
edge $220 -1 $-1 $221 -7.536138192057023844 $90 0.9012034136694637709 $142 $222 forward @7 unknown #
face $223 -1 $-1 $224 $88 $3 $-1 $225 forward single #
point $-1 -1 $-1 1332.575089920024766 985.9642780379499527 9.274000000000000909 #
point $-1 -1 $-1 1332.575089920024766 985.9642780379499527 87.1939999999999884 #
coedge $-1 -1 $-1 $94 $93 $162 $226 reversed $95 $-1 #
edge $227 -1 $-1 $97 0 $165 96.4339999999999975 $108 $228 forward @7 tangent #
face $229 -1 $-1 $110 $95 $3 $-1 $230 forward single #
point $-1 -1 $-1 1326.172431525750653 953.9242780379502165 0 #
color-adesk-attrib $-1 -1 $-1 $-1 $99 256 #
vertex $-1 -1 $-1 $99 $231 #
straight-curve $-1 -1 $-1 1338.592431525750726 941.5042780379501437 0 0 0 1 I I #
coedge $-1 -1 $-1 $232 $233 $234 $235 forward $100 $-1 #
color-adesk-attrib $-1 -1 $-1 $-1 $101 256 #
plane-surface $-1 -1 $-1 1338.592431525750726 941.5042780379501437 0 1 0 0 0 1 0 forward_v I I I I #
coedge $-1 -1 $-1 $104 $103 $152 $226 forward $105 $-1 #
face $236 -1 $-1 $-1 $105 $3 $-1 $237 forward single #
color-adesk-attrib $-1 -1 $-1 $-1 $109 256 #
vertex $-1 -1 $-1 $153 $238 #
straight-curve $-1 -1 $-1 1326.172431525750653 980.364278037950271 96.4339999999999975 0 -1 0 I I #
color-adesk-attrib $-1 -1 $-1 $-1 $110 256 #
loop $-1 -1 $-1 $61 $239 $110 #
plane-surface $-1 -1 $-1 1326.172431525750653 980.364278037950271 0 -1 0 0 0 -1 0 forward_v I I I I #
color-adesk-attrib $-1 -1 $-1 $-1 $112 256 #
straight-curve $-1 -1 $-1 1338.592431525750726 941.5042780379501437 96.4339999999999975 0 1 0 I I #
color-adesk-attrib $-1 -1 $-1 $-1 $117 256 #
face $240 -1 $-1 $241 $143 $3 $-1 $242 forward single #
loop $-1 -1 $-1 $-1 $243 $117 #
cone-surface $-1 -1 $-1 1338.592431525750953 953.9242780379504438 0 0 0 1 -8.220000000000300844 -1.504840267426240643e-13 0 1 I I 0 1 12.42000000000030013 forward I I I I #
coedge $-1 -1 $-1 $244 $120 $243 $245 reversed $74 $-1 #
coedge $-1 -1 $-1 $120 $244 $246 $247 forward $74 $-1 #
coedge $-1 -1 $-1 $216 $214 $120 $179 forward $143 $-1 #
edge $248 -1 $-1 $249 -0.901203413670145892 $250 7.536138192057023844 $178 $251 forward @7 unknown #
coedge $-1 -1 $-1 $211 $121 $244 $252 forward $43 $-1 #
coedge $-1 -1 $-1 $218 $246 $121 $182 forward $202 $-1 #
edge $253 -1 $-1 $254 -18.81999999999993634 $184 18.81999999999982265 $181 $255 forward @7 unknown #
color-adesk-attrib $-1 -1 $-1 $-1 $122 256 #
vertex $-1 -1 $-1 $219 $256 #
straight-curve $-1 -1 $-1 1333.47629333369423 985.9642780379500664 87.1939999999999884 1 -1.224646799147353454e-16 0 I I #
coedge $-1 -1 $-1 $233 $232 $123 $187 forward $100 $-1 #
edge $257 -1 $-1 $197 -35.84000000000003183 $191 10.19999999999959073 $186 $258 reversed @7 unknown #
coedge $-1 -1 $-1 $259 $124 $129 $201 forward $118 $-1 #
coedge $-1 -1 $-1 $124 $259 $233 $260 reversed $118 $-1 #
color-adesk-attrib $-1 -1 $-1 $-1 $125 256 #
vertex $-1 -1 $-1 $260 $261 #
straight-curve $-1 -1 $-1 1339.802431525751217 944.1242780379507167 5.074000000001273492 1 -1.224646799147353207e-16 6.123233995736766036e-17 F -11339.80243252575201 F 8660.197569474248667 #
coedge $-1 -1 $-1 $262 $126 $232 $263 reversed $195 $-1 #
coedge $-1 -1 $-1 $126 $262 $128 $200 forward $195 $-1 #
loop $-1 -1 $-1 $-1 $262 $264 #
color-adesk-attrib $-1 -1 $-1 $-1 $127 256 #
vertex $-1 -1 $-1 $263 $265 #
straight-curve $-1 -1 $-1 1339.802431525751217 990.1642780379506803 5.074000000001273492 -1 1.224646799147353207e-16 -6.123233995736766036e-17 F -8660.197569474248667 F 11339.80243252575201 #
coedge $-1 -1 $-1 $129 $128 $266 $267 reversed $130 $-1 #
edge $268 -1 $-1 $269 -43.15999999999954184 $132 43.15999999999955605 $194 $270 reversed @7 unknown #
edge $271 -1 $-1 $133 -43.15999999999955605 $272 43.15999999999954184 $188 $273 reversed @7 unknown #
loop $-1 -1 $-1 $-1 $218 $203 #
face $274 -1 $-1 $264 $130 $3 $-1 $275 forward single #
point $-1 -1 $-1 1341.012431525751254 990.1642780379504529 5.074000000001275268 #
point $-1 -1 $-1 1341.012431525751254 944.1242780379508304 5.074000000001275268 #
coedge $-1 -1 $-1 $276 $135 $137 $212 forward $208 $-1 #
coedge $-1 -1 $-1 $135 $276 $141 $215 reversed $208 $-1 #
loop $-1 -1 $-1 $-1 $207 $224 #
color-adesk-attrib $-1 -1 $-1 $-1 $136 256 #
straight-curve $-1 -1 $-1 1330.372431525751153 980.364278037950271 0 0 0 1 I I #
coedge $-1 -1 $-1 $137 $180 $277 $278 reversed $43 $-1 #
edge $279 -1 $-1 $139 -6.610000000000127329 $280 19.82999999999992724 $206 $281 forward @7 unknown #
point $-1 -1 $-1 1330.372431525751153 980.364278037950271 87.1939999999999884 #
coedge $-1 -1 $-1 $178 $141 $282 $283 forward $143 $-1 #
edge $284 -1 $-1 $145 -6.610000000000127329 $285 19.82999999999992724 $207 $286 forward @7 unknown #
coedge $-1 -1 $-1 $142 $178 $287 $288 reversed $143 $-1 #
point $-1 -1 $-1 1330.372431525751153 980.364278037950271 9.274000000000000909 #
coedge $-1 -1 $-1 $287 $181 $147 $219 forward $202 $-1 #
edge $289 -1 $-1 $184 -38.959999999999539 $221 38.95999999999956032 $218 $290 forward @7 unknown #
color-adesk-attrib $-1 -1 $-1 $-1 $148 256 #
vertex $-1 -1 $-1 $219 $291 #
straight-curve $-1 -1 $-1 1333.47629333369423 985.9642780379499527 9.274000000000000909 -1 1.224646799147353454e-16 0 I I #
color-adesk-attrib $-1 -1 $-1 $-1 $149 256 #
face $292 -1 $-1 $203 $293 $3 $-1 $294 reversed single #
plane-surface $-1 -1 $-1 1339.802431525751217 985.9642780379505211 48.2340000000008331 -1.224646799147353207e-16 -1 -7.498798913309288039e-33 1 -1.224646799147353207e-16 6.123233995736766036e-17 reverse_v I I I I #
edge $295 -1 $-1 $165 0 $157 1.570796326794859921 $152 $296 forward @7 unknown #
color-adesk-attrib $-1 -1 $-1 $-1 $153 256 #
straight-curve $-1 -1 $-1 1326.172431525750653 953.9242780379502165 0 0 0 1 I I #
color-adesk-attrib $-1 -1 $-1 $-1 $154 256 #
cone-surface $-1 -1 $-1 1338.592431525750953 953.9242780379504438 0 0 0 1 -12.42000000000030013 -2.273736754432320595e-13 0 1 I I 0 1 12.42000000000030013 forward I I I I #
point $-1 -1 $-1 1338.592431525750726 941.5042780379501437 96.4339999999999975 #
coedge $-1 -1 $-1 $186 $159 $193 $263 forward $100 $-1 #
coedge $-1 -1 $-1 $159 $186 $189 $260 forward $100 $-1 #
coedge $-1 -1 $-1 $297 $298 $159 $235 reversed $299 $-1 #
edge $300 -1 $-1 $301 -10.19999999999959073 $302 35.84000000000003183 $159 $303 reversed @7 unknown #
color-adesk-attrib $-1 -1 $-1 $-1 $163 256 #
plane-surface $-1 -1 $-1 1333.360155141637733 967.1442780379501301 96.4339999999999975 0 0 1 1 0 0 forward_v I I I I #
point $-1 -1 $-1 1326.172431525750653 953.9242780379502165 96.4339999999999975 #
coedge $-1 -1 $-1 $239 $239 $304 $305 forward $168 $-1 #
color-adesk-attrib $-1 -1 $-1 $-1 $173 256 #
face $306 -1 $-1 $149 $307 $3 $-1 $308 reversed single #
plane-surface $-1 -1 $-1 1333.360155141637733 967.1442780379501301 9.274000000000000909 0 0 1 1 0 0 forward_v I I I I #
coedge $-1 -1 $-1 $282 $277 $176 $245 forward $174 $-1 #
coedge $-1 -1 $-1 $177 $176 $180 $252 reversed $74 $-1 #
edge $309 -1 $-1 $310 -87.1939999999999884 $249 -9.274000000000000909 $243 $311 forward @7 unknown #
coedge $-1 -1 $-1 $181 $287 $177 $247 reversed $202 $-1 #
edge $312 -1 $-1 $254 -38.96850000000013381 $250 38.95149999999896551 $246 $313 forward @7 unknown #
color-adesk-attrib $-1 -1 $-1 $-1 $179 256 #
vertex $-1 -1 $-1 $245 $314 #
vertex $-1 -1 $-1 $179 $315 #
straight-curve $-1 -1 $-1 1333.47629333369423 948.3242780379509895 9.274000000000000909 1 -1.224646799147353207e-16 0 I I #
edge $316 -1 $-1 $254 -7.536138192057023844 $310 0.901203413670145892 $180 $317 forward @7 unknown #
color-adesk-attrib $-1 -1 $-1 $-1 $182 256 #
vertex $-1 -1 $-1 $252 $318 #
straight-curve $-1 -1 $-1 1341.012431525751254 967.1442780379506985 87.19400000000038631 1.224646799147353207e-16 1 7.498798913309288039e-33 F -18.81999999999993634 F 18.81999999999982265 #
point $-1 -1 $-1 1341.012431525751254 985.9642780379505211 87.1940000000003721 #
color-adesk-attrib $-1 -1 $-1 $-1 $187 256 #
straight-curve $-1 -1 $-1 1338.592431525750726 954.3242780379504211 5.07400000000127438 0 1 -0 F -10954.32427903794996 F 9045.675722962050713 #
coedge $-1 -1 $-1 $189 $188 $297 $319 forward $118 $-1 #
edge $320 -1 $-1 $191 -19.0429999999991395 $301 67.27699999999995839 $233 $321 reversed @7 unknown #
point $-1 -1 $-1 1338.592431525750726 944.1242780379508304 5.074000000001275268 #
coedge $-1 -1 $-1 $194 $193 $298 $322 reversed $195 $-1 #
edge $323 -1 $-1 $302 -67.27699999999995839 $197 19.04299999999914306 $232 $324 reversed @7 unknown #
face $325 -1 $-1 $326 $195 $3 $-1 $327 reversed single #
point $-1 -1 $-1 1338.592431525750726 990.1642780379504529 5.07400000000127438 #
coedge $-1 -1 $-1 $298 $297 $199 $267 forward $299 $-1 #
edge $328 -1 $-1 $272 -23.01999999999986812 $269 23.01999999999975444 $266 $329 reversed @7 unknown #
color-adesk-attrib $-1 -1 $-1 $-1 $200 256 #
vertex $-1 -1 $-1 $267 $330 #
straight-curve $-1 -1 $-1 1341.012431525751254 990.1642780379506803 48.2340000000008331 -6.123233995736766036e-17 0 1 F -10048.23400100000072 F 9951.76600099999996 #
color-adesk-attrib $-1 -1 $-1 $-1 $201 256 #
vertex $-1 -1 $-1 $201 $331 #
straight-curve $-1 -1 $-1 1341.012431525751254 944.1242780379507167 48.2340000000008331 6.123233995736766036e-17 0 -1 F -9951.76600099999996 F 10048.23400100000072 #
color-adesk-attrib $-1 -1 $-1 $-1 $203 256 #
plane-surface $-1 -1 $-1 1341.012431525751254 967.1442780379506985 48.2340000000008331 1 -1.224646799147353207e-16 6.123233995736766036e-17 6.123233995736766036e-17 0 -1 reverse_v I I I I #
coedge $-1 -1 $-1 $207 $206 $332 $333 reversed $208 $-1 #
coedge $-1 -1 $-1 $243 $332 $211 $278 forward $174 $-1 #
edge $334 -1 $-1 $280 9.353971861387644672e-15 $310 0.7494895857355462487 $277 $335 forward @7 unknown #
color-adesk-attrib $-1 -1 $-1 $-1 $212 256 #
vertex $-1 -1 $-1 $333 $336 #
straight-curve $-1 -1 $-1 1330.372431525750699 973.7542780379501437 87.1939999999999884 0 -1 0 F -9026.245722962050422 F 10973.75427903795025 #
coedge $-1 -1 $-1 $332 $243 $214 $283 reversed $174 $-1 #
edge $337 -1 $-1 $285 9.353971861387644672e-15 $249 0.7494895857355462487 $282 $338 forward @7 unknown #
color-adesk-attrib $-1 -1 $-1 $-1 $215 256 #
vertex $-1 -1 $-1 $215 $339 #
straight-curve $-1 -1 $-1 1330.372431525750699 973.7542780379501437 9.274000000000000909 0 -1 0 F -9026.245722962050422 F 10973.75427903795025 #
coedge $-1 -1 $-1 $246 $218 $216 $288 forward $202 $-1 #
edge $340 -1 $-1 $221 -18.81999999999982265 $250 18.81999999999993634 $287 $341 forward @7 unknown #
color-adesk-attrib $-1 -1 $-1 $-1 $219 256 #
straight-curve $-1 -1 $-1 1341.012431525751254 985.9642780379504075 48.2340000000008331 6.123233995736766036e-17 -0 -1 F -38.959999999999539 F 38.95999999999956032 #
point $-1 -1 $-1 1341.012431525751254 985.9642780379505211 9.274000000001272781 #
color-adesk-attrib $-1 -1 $-1 $-1 $224 256 #
loop $-1 -1 $-1 $208 $342 $224 #
plane-surface $-1 -1 $-1 1330.372431525750699 980.364278037950271 0 -1 0 0 0 -1 0 forward_v I I I I #
color-adesk-attrib $-1 -1 $-1 $-1 $226 256 #
ellipse-curve $-1 -1 $-1 1338.592431525750953 953.9242780379504438 96.4339999999999975 0 0 1 -12.42000000000030013 -2.273736754432320595e-13 0 1 I I #
coedge $-1 -1 $-1 $266 $234 $259 $319 reversed $299 $-1 #
coedge $-1 -1 $-1 $234 $266 $262 $322 forward $299 $-1 #
loop $-1 -1 $-1 $-1 $234 $326 #
color-adesk-attrib $-1 -1 $-1 $-1 $235 256 #
vertex $-1 -1 $-1 $235 $343 #
vertex $-1 -1 $-1 $263 $344 #
straight-curve $-1 -1 $-1 1338.592431525750726 954.3242780379504211 91.39400000000038915 0 -1 0 F -9045.675722962050713 F 10954.32427903794996 #
coedge $-1 -1 $-1 $304 $304 $239 $305 reversed $345 $-1 #
edge $346 -1 $-1 $347 0 $347 6.283185307179586232 $239 $348 forward @7 unknown #
color-adesk-attrib $-1 -1 $-1 $-1 $241 256 #
loop $-1 -1 $-1 $345 $349 $241 #
cone-surface $-1 -1 $-1 1358.278289588566395 967.1442780379504711 48.21699999999964348 1 0 6.123233995736766036e-17 3.673940397442059375e-16 0 -6 1 I I 0 1 6 forward I I I I #
color-adesk-attrib $-1 -1 $-1 $-1 $245 256 #
vertex $-1 -1 $-1 $245 $350 #
straight-curve $-1 -1 $-1 1332.575089920024084 948.3242780379509895 0 0 0 -1 I I #
color-adesk-attrib $-1 -1 $-1 $-1 $247 256 #
straight-curve $-1 -1 $-1 1341.012431525751254 948.3242780379509895 48.22550000000023829 6.123233995736766036e-17 0 -1 I I #
point $-1 -1 $-1 1332.575089920024084 948.3242780379509895 9.274000000000000909 #
point $-1 -1 $-1 1341.012431525751254 948.3242780379507622 9.274000000001272781 #
color-adesk-attrib $-1 -1 $-1 $-1 $252 256 #
straight-curve $-1 -1 $-1 1333.47629333369423 948.3242780379509895 87.1939999999999884 -1 1.224646799147353207e-16 0 I I #
point $-1 -1 $-1 1341.012431525751254 948.3242780379507622 87.1940000000003721 #
edge $351 -1 $-1 $272 -1.21000000000003638 $301 1.210000000000491127 $259 $352 reversed @7 unknown #
color-adesk-attrib $-1 -1 $-1 $-1 $260 256 #
straight-curve $-1 -1 $-1 1338.592431525750726 944.1242780379509441 24.11700000000041655 0 7.498798913309288039e-33 -1 F -9975.883001000000149 F 10024.11700100000053 #
edge $353 -1 $-1 $269 -1.21000000000003638 $302 1.210000000000491127 $298 $354 reversed @7 unknown #
color-adesk-attrib $-1 -1 $-1 $-1 $263 256 #
straight-curve $-1 -1 $-1 1338.592431525750726 990.1642780379504529 24.11700000000041655 0 -7.498798913309288039e-33 1 F -10024.11700100000053 F 9975.883001000000149 #
color-adesk-attrib $-1 -1 $-1 $-1 $264 256 #
face $355 -1 $-1 $101 $299 $3 $-1 $356 reversed single #
plane-surface $-1 -1 $-1 1339.802431525751217 990.1642780379505666 48.2340000000008331 -1.224646799147353207e-16 -1 -7.498798913309288039e-33 1 -1.224646799147353207e-16 6.123233995736766036e-17 reverse_v I I I I #
color-adesk-attrib $-1 -1 $-1 $-1 $267 256 #
straight-curve $-1 -1 $-1 1341.012431525751254 967.1442780379506985 91.39400000000040336 -1.224646799147353207e-16 -1 -7.498798913309288039e-33 F -9032.855722962049185 F 10967.14427903795149 #
point $-1 -1 $-1 1341.012431525751254 990.1642780379504529 91.39400000000037494 #
point $-1 -1 $-1 1341.012431525751254 944.1242780379508304 91.39400000000037494 #
coedge $-1 -1 $-1 $277 $282 $276 $333 forward $174 $-1 #
edge $357 -1 $-1 $285 9.274000000000000909 $280 87.1939999999999884 $276 $358 forward @7 tangent #
color-adesk-attrib $-1 -1 $-1 $-1 $278 256 #
ellipse-curve $-1 -1 $-1 1338.592431525750953 953.9242780379504438 87.1939999999999884 0 0 1 -8.220000000000300844 -1.504840267426240643e-13 0 1 I I #
point $-1 -1 $-1 1330.372431525750699 953.9242780379502165 87.1939999999999884 #
color-adesk-attrib $-1 -1 $-1 $-1 $283 256 #
ellipse-curve $-1 -1 $-1 1338.592431525750953 953.9242780379504438 9.274000000000000909 0 0 1 -8.220000000000300844 -1.504840267426240643e-13 0 1 I I #
point $-1 -1 $-1 1330.372431525750699 953.9242780379502165 9.274000000000000909 #
color-adesk-attrib $-1 -1 $-1 $-1 $288 256 #
straight-curve $-1 -1 $-1 1341.012431525751254 967.1442780379506985 9.274000000001272781 -1.224646799147353207e-16 -1 -7.498798913309288039e-33 F -18.81999999999982265 F 18.81999999999993634 #
coedge $-1 -1 $-1 $342 $342 $349 $359 forward $293 $-1 #
point $-1 -1 $-1 1338.592431525750726 944.1242780379508304 91.39400000000037494 #
point $-1 -1 $-1 1338.592431525750726 990.1642780379504529 91.39400000000037494 #
loop $-1 -1 $-1 $-1 $304 $241 #
color-adesk-attrib $-1 -1 $-1 $-1 $305 256 #
vertex $-1 -1 $-1 $305 $360 #
ellipse-curve $-1 -1 $-1 1326.172431525750653 967.1442780379504711 48.21699999999964348 1 -0 -0 3.673940397442059375e-16 0 -6 1 I I #
coedge $-1 -1 $-1 $349 $349 $342 $359 reversed $307 $-1 #
point $-1 -1 $-1 1332.575089920024084 948.3242780379509895 87.1939999999999884 #
color-adesk-attrib $-1 -1 $-1 $-1 $319 256 #
straight-curve $-1 -1 $-1 1339.802431525751217 944.1242780379508304 91.39400000000040336 1 -1.224646799147353207e-16 6.123233995736766036e-17 F -11339.80243252575201 F 8660.197569474248667 #
color-adesk-attrib $-1 -1 $-1 $-1 $322 256 #
straight-curve $-1 -1 $-1 1339.802431525751217 990.1642780379506803 91.39400000000038915 1 -1.224646799147353207e-16 6.123233995736766036e-17 F -11339.80243252575201 F 8660.197569474248667 #
color-adesk-attrib $-1 -1 $-1 $-1 $326 256 #
plane-surface $-1 -1 $-1 1339.802431525751217 967.1442780379506985 91.39400000000038915 6.123233995736766036e-17 0 -1 -1 1.224646799147353207e-16 -6.123233995736766036e-17 reverse_v I I I I #
color-adesk-attrib $-1 -1 $-1 $-1 $333 256 #
straight-curve $-1 -1 $-1 1330.372431525750699 953.9242780379502165 0 0 0 1 I I #
edge $361 -1 $-1 $362 -3.141592653589793116 $362 3.141592653589793116 $342 $363 forward @7 unknown #
point $-1 -1 $-1 1326.172431525750881 967.1442780379504711 42.21699999999964348 #
color-adesk-attrib $-1 -1 $-1 $-1 $359 256 #
vertex $-1 -1 $-1 $359 $364 #
ellipse-curve $-1 -1 $-1 1330.372431525750699 967.1442780379504711 48.21699999999964348 -1 0 0 3.673940397442059375e-16 0 -6 1 I I #
point $-1 -1 $-1 1330.372431525750699 967.1442780379504711 54.21699999999964348 #
